<svg xmlns="http://www.w3.org/2000/svg" viewBox="0 0 74.9 74.9"><style>.a{fill:none;stroke-width:3;stroke:#010101;}.b{fill:none;stroke-linejoin:round;stroke-width:3;stroke:#010101;}</style><path d="M31.4 45.9c8 0 14.5-6.5 14.5-14.5s-6.5-14.5-14.5-14.5 -14.5 6.5-14.5 14.5S23.4 45.9 31.4 45.9z" class="a"/><path d="M31.4 40.6c5.1 0 9.2-4.2 9.2-9.2s-4.2-9.2-9.2-9.2 -9.2 4.2-9.2 9.2S26.3 40.6 31.4 40.6z" class="a"/><line x1="50.5" y1="31.4" x2="61.4" y2="31.4" class="b"/><line x1="1.3" y1="31.4" x2="12.3" y2="31.4" class="b"/><line x1="44.9" y1="17.9" x2="52.6" y2="10.1" class="b"/><line x1="31.4" y1="12.3" x2="31.4" y2="1.3" class="b"/><line x1="31.4" y1="61.4" x2="31.4" y2="50.5" class="b"/><line x1="17.9" y1="17.9" x2="10.1" y2="10.1" class="b"/><line x1="17.9" y1="44.9" x2="10.1" y2="52.6" class="b"/><line x1="44.9" y1="44.9" x2="72.9" y2="72.9" style="fill:none;stroke-linejoin:round;stroke-width:4;stroke:#010101"/></svg>